<svg width="1408" height="800" viewBox="0 0 1408 800" fill="none" xmlns="http://www.w3.org/2000/svg">
<rect x="0.5" y="0.5" width="1407" height="799" fill="#FFFBF9"/>
<rect x="0.5" y="0.5" width="1407" height="799" stroke="#E2E8F0"/>
<g clip-path="url(#clip0_27_1317)">
<path fill-rule="evenodd" clip-rule="evenodd" d="M1.35156 225C7.73156 227.197 14.9546 226.935 21.4676 223.693C27.2576 220.81 31.6526 216.059 33.9956 209.998C40.2456 211.782 46.6846 211.14 52.4756 208.257C65.3636 201.841 70.6166 186.174 64.2006 173.286C58.6216 162.078 46.1276 156.644 34.5506 159.61L3.99956 98.2361V121.179L27.1656 167.715C28.3746 170.143 31.4516 171.175 33.8796 169.966C41.8176 166.248 51.1436 169.53 55.0496 177.375C58.9546 185.22 55.8576 194.92 47.8256 198.918C43.9036 200.871 39.7966 201.05 35.6936 199.83C35.6986 197.03 35.2366 194.23 34.4016 191.616C33.5666 189.002 30.5826 187.69 27.9686 188.525C25.3546 189.36 24.0426 192.344 24.8786 194.958C25.7126 197.573 25.9886 200.466 25.3286 203.357C24.2946 208.301 21.2086 212.401 16.7246 214.633C12.7066 216.757 8.05856 216.827 3.99956 215.249V225H1.35156ZM3.99956 184.754C5.14156 183.272 5.43456 181.183 4.56256 179.433L3.99956 178.301V184.754Z" fill="#92400E" fill-opacity="0.04"/>
<path d="M1458.94 630.159C1467.72 632.119 1475.77 636.542 1482.13 642.909C1488.5 649.264 1492.93 657.307 1494.89 666.091C1484.91 674.9 1469.49 674.553 1459.98 665.048C1450.47 655.543 1450.12 640.127 1458.94 630.159ZM1437.02 687.998C1427.51 678.494 1412.09 678.146 1402.11 686.955C1404.07 695.739 1408.5 703.782 1414.87 710.137C1421.23 716.505 1429.28 720.928 1438.06 722.887C1446.88 712.919 1446.53 697.503 1437.02 687.998ZM1495.7 671.423C1490.48 675.248 1484.22 677.103 1477.96 677.103C1470.19 677.103 1462.53 674.205 1456.62 668.293C1446.06 657.746 1445.02 641.055 1453.6 629.232C1451.98 629.116 1450.24 629 1448.5 629C1435.98 629 1423.92 633.868 1414.87 642.909C1404.66 653.109 1399.68 667.366 1401.3 681.623C1413.01 673.046 1429.83 674.089 1440.38 684.637C1450.94 695.185 1451.98 711.876 1443.4 723.698C1457.66 725.321 1471.93 720.337 1482.13 710.137C1492.34 699.937 1497.32 685.68 1495.7 671.423ZM1859.5 153.611C1871.71 156.33 1882.89 162.476 1891.73 171.326C1900.58 180.159 1906.73 191.333 1909.45 203.537C1895.6 215.777 1874.16 215.294 1860.95 202.088C1847.74 188.881 1847.26 167.461 1859.5 153.611ZM1829.05 233.976C1815.84 220.77 1794.4 220.287 1780.55 232.527C1783.27 244.731 1789.42 255.905 1798.27 264.738C1807.11 273.589 1818.29 279.734 1830.5 282.454C1842.74 268.603 1842.26 247.183 1829.05 233.976ZM1910.58 210.946C1903.33 216.26 1894.63 218.837 1885.93 218.837C1875.13 218.837 1864.5 214.811 1856.28 206.597C1841.62 191.941 1840.17 168.75 1852.09 152.322C1849.83 152.161 1847.42 152 1845 152C1827.6 152 1810.84 158.764 1798.27 171.326C1784.09 185.499 1777.16 205.309 1779.42 225.118C1795.69 213.2 1819.06 214.65 1833.72 229.306C1848.38 243.962 1849.83 267.154 1837.91 283.581C1857.73 285.836 1877.55 278.91 1891.73 264.738C1905.91 250.565 1912.84 230.755 1910.58 210.946ZM607.376 39.208C616.532 41.2486 624.917 45.8578 631.546 52.495C638.185 59.1192 642.797 67.4997 644.84 76.653C634.447 85.833 618.374 85.471 608.464 75.566C598.554 65.661 598.192 49.596 607.376 39.208ZM584.536 99.482C574.626 89.578 558.553 89.215 548.16 98.395C550.203 107.548 554.815 115.929 561.454 122.553C568.083 129.191 576.468 133.8 585.624 135.84C594.808 125.452 594.446 109.387 584.536 99.482ZM645.686 82.209C640.247 86.195 633.722 88.128 627.196 88.128C619.099 88.128 611.123 85.108 604.959 78.948C593.962 67.956 592.875 50.562 601.817 38.242C600.125 38.121 598.313 38 596.5 38C583.448 38 570.88 43.073 561.454 52.495C550.819 63.125 545.623 77.982 547.314 92.839C559.52 83.9 577.043 84.987 588.041 95.979C599.038 106.971 600.125 124.365 591.183 136.686C606.047 138.377 620.912 133.183 631.546 122.553C642.181 111.924 647.377 97.067 645.686 82.209ZM352.376 675.208C361.532 677.248 369.917 681.857 376.546 688.495C383.185 695.119 387.797 703.5 389.84 712.653C379.447 721.833 363.374 721.471 353.464 711.566C343.554 701.661 343.192 685.596 352.376 675.208ZM329.536 735.482C319.626 725.578 303.553 725.215 293.16 734.395C295.203 743.548 299.815 751.929 306.454 758.553C313.083 765.191 321.468 769.8 330.624 771.84C339.808 761.452 339.446 745.387 329.536 735.482ZM390.686 718.209C385.247 722.195 378.722 724.128 372.196 724.128C364.099 724.128 356.123 721.108 349.959 714.948C338.962 703.956 337.875 686.562 346.817 674.242C345.125 674.121 343.313 674 341.5 674C328.448 674 315.88 679.073 306.454 688.495C295.819 699.124 290.623 713.982 292.314 728.839C304.52 719.9 322.043 720.987 333.041 731.979C344.038 742.971 345.125 760.365 336.183 772.686C351.047 774.377 365.912 769.183 376.546 758.553C387.181 747.924 392.377 733.067 390.686 718.209ZM788.182 738.661C788.423 738.43 788.663 738.184 788.893 737.931C797.206 726.946 792.841 711.351 784.974 701.355C778.274 691.876 764.481 684.537 753.51 691.269C751.935 692.263 750.656 693.678 749.682 695.254C742.072 709.351 749.408 727.145 761.2 736.541C768.246 743.142 780.699 745.84 788.182 738.661ZM829.794 698.904C835.818 692.988 834.765 682.236 830.239 675.438C821.395 661.853 802.551 652.319 786.972 659.977C785.606 660.797 784.403 661.861 783.423 663.117C776.503 672.153 781.638 684.606 788.929 691.716C798.343 701.287 814.027 707.866 826.771 701.115C827.879 700.526 828.897 699.781 829.794 698.904ZM729.93 730.217C739.998 719.605 737.346 702.113 729.084 691.189C723.786 682.694 710.99 676.669 702.278 683.743C691.007 694.546 694.637 714.018 704.129 724.817C709.9 732.434 721.864 737.041 729.93 730.217ZM821.067 640.56C825.641 636.356 827.558 629.462 824.723 623.458C817.126 607.405 794.552 599.188 779.056 608.812C772.729 612.977 771.858 621.652 775.224 627.962C782.451 641.434 800.055 648.461 814.598 644.045C817.014 643.448 819.239 642.249 821.067 640.56ZM752.541 663.118C761.418 654.781 766.226 641.813 765.694 629.699C764.583 616.04 761.145 602.149 753.885 590.389C749.645 581 736.489 577.936 728.838 584.998C719.45 593.3 717.47 606.944 708.809 615.919C702.191 624.316 691.52 626.759 682.12 630.617C673.845 633.612 666.587 642.217 669.525 651.405C673.22 660.114 683.184 663.767 691.467 666.825C706.116 670.661 721.632 674.581 736.769 671.374C742.898 670.154 748.205 667.19 752.541 663.118ZM1191.27 810.209C1191.13 809.978 1190.99 809.747 1190.83 809.52C1183.75 801.027 1170.77 801.607 1161.53 805.941C1152.9 809.457 1144.66 818.906 1147.93 828.705C1148.42 830.117 1149.29 831.374 1150.35 832.421C1159.98 840.93 1175.23 838.427 1184.71 830.916C1191.15 826.607 1195.52 817.362 1191.27 810.209ZM1167.75 770.459C1164.22 764.676 1155.62 763.546 1149.49 765.849C1137.26 770.295 1126.39 783.295 1129.54 796.864C1129.93 798.08 1130.55 799.214 1131.35 800.208C1137.16 807.259 1147.83 805.507 1154.71 801.098C1163.9 795.478 1171.89 784.412 1168.93 773.224C1168.65 772.204 1168.25 771.285 1167.75 770.459ZM1174.09 854.212C1167.62 844.414 1153.47 843.31 1143.43 847.784C1135.82 850.383 1128.79 859.291 1132.74 867.387C1139.14 878.159 1155.02 878.859 1165.18 873.4C1172.18 870.272 1177.96 861.756 1174.09 854.212ZM1120.56 766.685C1118.1 762.346 1113.06 759.595 1107.85 760.721C1093.92 763.744 1083.4 779.898 1088.11 793.759C1090.22 799.462 1096.84 801.718 1102.38 800.233C1114.23 797.03 1122.92 784.545 1122.11 772.375C1122.08 770.378 1121.55 768.422 1120.56 766.685ZM1125.74 824.35C1120.84 815.896 1111.58 809.782 1102.01 807.998C1091.13 806.386 1079.65 806.55 1069.14 810.09C1061.03 811.698 1056.24 821.426 1060.37 828.69C1065.16 837.536 1075.46 841.563 1080.91 849.963C1086.27 856.661 1086.24 865.446 1087.55 873.495C1088.39 880.508 1093.79 887.745 1101.51 887.117C1108.99 885.81 1113.66 878.685 1117.55 872.765C1123.21 862.011 1129.09 850.594 1129.33 838.178C1129.49 833.165 1128.14 828.478 1125.74 824.35ZM1463.35 534.535C1463.61 534.601 1463.88 534.661 1464.15 534.711C1475.14 535.789 1483.78 526.665 1487.14 517.478C1490.66 509.265 1489.67 497.236 1480.41 492.703C1479.06 492.064 1477.56 491.787 1476.07 491.777C1463.29 492.409 1454.44 504.372 1453.17 515.906C1451.75 523.193 1455.28 532.48 1463.35 534.535ZM1508.08 546.031C1514.67 547.63 1521.47 542.63 1524.11 536.924C1529.47 525.654 1527.8 509.418 1515.92 502.219C1514.78 501.645 1513.55 501.279 1512.28 501.138C1503.2 500.198 1497.01 508.569 1495.35 516.222C1492.94 526.26 1495.25 539.23 1505.29 544.924C1506.21 545.439 1507.14 545.802 1508.08 546.031ZM1443.98 492.766C1455.47 495.15 1466.14 486.395 1469.95 476.575C1473.41 469.681 1471.97 458.836 1463.44 455.928C1451.31 452.828 1439.73 463.02 1436.52 473.601C1433.87 480.455 1435.91 490.185 1443.98 492.766ZM1543.7 516.909C1548.5 518.239 1553.98 516.741 1556.81 512.467C1564.38 501.031 1560.21 482.863 1547.05 476.507C1541.51 474.006 1535.28 476.907 1532.47 481.653C1526.49 491.812 1529.32 506.227 1538.56 514.042C1540.02 515.399 1541.78 516.383 1543.7 516.909ZM1498.99 480.788C1508.44 483.298 1519.26 481.272 1527.2 476.069C1535.94 469.865 1543.83 462.036 1548.65 452.54C1553.16 445.986 1549.57 436.089 1541.51 433.876C1531.87 431.015 1521.81 435.175 1512.02 433.063C1503.51 432.066 1497.27 426.013 1490.62 421.364C1485.04 417.11 1476.11 415.775 1471.17 421.391C1466.89 427.314 1468.71 435.344 1470.21 442.027C1473.92 453.217 1477.95 465.012 1486.63 473.702C1490.09 477.252 1494.38 479.562 1498.99 480.788ZM1317.48 108.883C1317.14 108.797 1316.79 108.72 1316.44 108.653C1302.13 107.25 1290.87 119.132 1286.49 131.098C1281.91 141.793 1283.19 157.459 1295.26 163.362C1297.01 164.195 1298.97 164.555 1300.9 164.568C1317.56 163.745 1329.08 148.166 1330.73 133.145C1332.59 123.654 1327.98 111.56 1317.48 108.883ZM1259.22 93.912C1250.64 91.829 1241.79 98.341 1238.35 105.772C1231.36 120.449 1233.55 141.594 1249 150.969C1250.49 151.713 1252.1 152.19 1253.75 152.377C1265.57 153.602 1273.64 142.699 1275.8 132.732C1278.94 119.661 1275.93 102.768 1262.86 95.353C1261.72 94.71 1260.49 94.2252 1259.22 93.912ZM1342.7 163.28C1327.73 160.176 1313.84 171.577 1308.87 184.366C1304.38 193.345 1306.25 207.469 1317.35 211.256C1333.16 215.292 1348.24 202.019 1352.41 188.239C1355.87 179.313 1353.22 166.642 1342.7 163.28ZM1212.84 131.839C1206.58 130.106 1199.44 132.057 1195.76 137.623C1185.91 152.517 1191.33 176.177 1208.47 184.454C1215.68 187.712 1223.79 183.933 1227.45 177.753C1235.24 164.523 1231.55 145.749 1219.52 135.572C1217.6 133.764 1215.28 132.516 1212.84 131.839ZM1271.06 178.879C1258.76 175.61 1244.67 178.249 1234.32 185.025C1222.94 193.105 1212.66 203.301 1206.39 215.667C1200.51 224.204 1205.19 237.093 1215.69 239.975C1228.24 243.7 1241.34 238.282 1254.09 241.033C1265.17 242.332 1273.3 250.215 1281.96 256.269C1289.23 261.808 1300.86 263.548 1307.29 256.234C1312.87 248.519 1310.5 238.063 1308.54 229.359C1303.7 214.786 1298.45 199.426 1287.15 188.108C1282.65 183.484 1277.07 180.476 1271.06 178.879ZM1679.07 199.974C1679.23 199.814 1679.38 199.644 1679.53 199.471C1684.89 191.982 1681.91 181.932 1676.68 175.674C1672.21 169.711 1663.11 165.404 1655.97 170.204C1654.95 170.912 1654.12 171.884 1653.5 172.95C1648.62 182.45 1653.57 193.833 1661.37 199.558C1666.04 203.624 1674.23 204.942 1679.07 199.974ZM1706.03 172.456C1709.93 168.367 1709.16 161.369 1706.14 157.082C1700.23 148.509 1687.81 142.947 1677.66 148.52C1676.77 149.106 1675.99 149.845 1675.36 150.703C1670.89 156.866 1674.36 164.831 1679.19 169.222C1685.44 175.148 1695.77 178.889 1704.07 174.012C1704.82 173.563 1705.47 173.04 1706.03 172.456ZM1640.83 196.544C1647.34 189.236 1645.46 177.883 1639.96 171.031C1636.42 165.662 1627.99 162.179 1622.33 167.122C1615.03 174.598 1617.57 187.212 1623.87 193.938C1627.72 198.715 1635.59 201.3 1640.83 196.544ZM1699.85 134.585C1702.81 131.669 1704.02 127.088 1702.11 123.26C1697 113.027 1682.14 108.462 1672.06 115.318C1667.95 118.272 1667.45 123.981 1669.7 127.99C1674.55 136.547 1686.14 140.512 1695.64 137.099C1697.23 136.616 1698.67 135.753 1699.85 134.585ZM1655.11 151.815C1660.87 146.039 1663.92 137.379 1663.47 129.469C1662.63 120.57 1660.27 111.602 1655.42 104.166C1652.57 98.174 1643.92 96.642 1638.96 101.54C1632.87 107.311 1631.68 116.312 1626.08 122.498C1621.81 128.231 1614.83 130.214 1608.7 133.078C1603.3 135.336 1598.61 141.229 1600.61 147.136C1603.1 152.703 1609.66 154.736 1615.11 156.439C1624.75 158.422 1634.95 160.43 1644.84 157.786C1648.85 156.767 1652.31 154.636 1655.11 151.815ZM1857.7 669.619C1857.48 669.562 1857.26 669.513 1857.04 669.472C1847.87 668.573 1840.66 676.183 1837.86 683.846C1834.93 690.696 1835.75 700.728 1843.47 704.509C1844.6 705.042 1845.85 705.273 1847.09 705.282C1857.75 704.754 1865.14 694.777 1866.19 685.157C1867.38 679.079 1864.43 671.333 1857.7 669.619ZM1820.39 660.03C1814.9 658.697 1809.23 662.867 1807.03 667.626C1802.55 677.026 1803.95 690.568 1813.85 696.572C1814.8 697.052 1815.84 697.352 1816.89 697.474C1824.46 698.258 1829.63 691.276 1831.01 684.893C1833.02 676.521 1831.1 665.703 1822.72 660.954C1821.99 660.539 1821.21 660.228 1820.39 660.03ZM1873.86 704.456C1864.27 702.469 1855.38 709.77 1852.19 717.961C1849.31 723.711 1850.51 732.757 1857.62 735.182C1867.75 737.767 1877.41 729.266 1880.08 720.441C1882.29 714.725 1880.59 706.61 1873.86 704.456ZM1790.69 684.32C1786.68 683.211 1782.11 684.46 1779.75 688.025C1773.44 697.563 1776.92 712.716 1787.89 718.017C1792.51 720.104 1797.7 717.684 1800.05 713.725C1805.04 705.253 1802.67 693.229 1794.97 686.711C1793.76 685.578 1792.29 684.757 1790.69 684.32ZM1827.98 714.447C1820.1 712.353 1811.07 714.043 1804.45 718.383C1797.16 723.558 1790.57 730.088 1786.56 738.007C1782.8 743.474 1785.79 751.729 1792.51 753.575C1800.55 755.961 1808.94 752.491 1817.1 754.253C1824.21 755.084 1829.41 760.133 1834.96 764.01C1839.61 767.558 1847.06 768.672 1851.18 763.988C1854.75 759.047 1853.23 752.35 1851.98 746.776C1848.88 737.443 1845.52 727.606 1838.28 720.357C1835.4 717.396 1831.82 715.47 1827.98 714.447ZM832.284 137.515C832.127 137.675 831.973 137.845 831.823 138.018C826.462 145.507 829.447 155.557 834.682 161.815C839.149 167.778 848.247 172.085 855.384 167.285C856.408 166.577 857.236 165.605 857.862 164.539C862.738 155.039 857.788 143.656 849.985 137.931C845.315 133.865 837.131 132.547 832.284 137.515ZM805.325 165.033C801.424 169.122 802.199 176.12 805.219 180.407C811.123 188.98 823.55 194.541 833.7 188.969C834.589 188.382 835.368 187.643 836.001 186.786C840.465 180.623 837.001 172.658 832.166 168.267C825.92 162.341 815.588 158.6 807.289 163.477C806.566 163.904 805.905 164.427 805.325 165.033ZM870.53 140.945C864.016 148.253 865.893 159.606 871.394 166.458C874.934 171.827 883.368 175.31 889.023 170.367C896.324 162.891 893.791 150.277 887.484 143.551C883.641 138.774 875.763 136.189 870.53 140.945ZM811.507 202.904C808.543 205.82 807.341 210.401 809.247 214.229C814.353 224.462 829.214 229.027 839.294 222.171C843.408 219.217 843.91 213.508 841.654 209.499C836.811 200.942 825.216 196.977 815.72 200.39C814.132 200.873 812.686 201.736 811.507 202.904ZM856.242 185.674C850.49 191.45 847.441 200.11 847.886 208.02C848.723 216.919 851.086 225.887 855.938 233.323C858.791 239.315 867.438 240.847 872.397 235.949C878.484 230.178 879.674 221.177 885.28 214.991C889.55 209.258 896.525 207.275 902.655 204.411C908.055 202.153 912.744 196.26 910.746 190.353C908.255 184.786 901.696 182.753 896.243 181.05C886.611 179.066 876.41 177.059 866.514 179.703C862.507 180.722 859.052 182.853 856.242 185.674ZM664.469 345.001C664.246 345.004 664.016 345.014 663.788 345.031C654.702 346.536 649.706 355.752 648.982 363.88C647.924 371.255 651.312 380.734 659.753 382.386C660.978 382.61 662.25 382.507 663.447 382.196C673.612 378.926 678.161 367.378 676.692 357.812C676.264 351.634 671.409 344.916 664.469 345.001ZM625.948 345.396C620.299 345.529 615.898 351.026 615.002 356.193C613.115 366.43 617.969 379.149 629.087 382.386C630.131 382.6 631.204 382.629 632.258 382.47C639.772 381.268 642.955 373.187 642.641 366.663C642.415 358.056 637.754 348.105 628.437 345.685C627.624 345.475 626.787 345.378 625.948 345.396ZM689.088 374.471C679.314 375.032 672.614 384.387 671.658 393.122C670.365 399.422 673.866 407.848 681.36 408.351C691.809 408.228 698.937 397.517 699.233 388.301C699.894 382.206 696.152 374.808 689.088 374.471ZM603.541 376.547C599.383 376.512 595.293 378.902 593.935 382.956C590.309 393.803 597.589 407.539 609.565 409.819C614.563 410.639 618.955 406.957 620.194 402.527C622.82 393.052 617.426 382.049 608.297 377.748C606.833 376.967 605.2 376.554 603.541 376.547ZM647.357 395.996C639.205 396.013 630.926 399.981 625.647 405.888C619.946 412.773 615.276 420.784 613.449 429.473C611.229 435.728 616.26 442.925 623.23 442.969C631.615 443.192 638.821 437.669 647.159 437.259C654.233 436.224 660.567 439.754 666.926 442.064C672.341 444.286 679.824 443.434 682.589 437.844C684.763 432.146 681.562 426.071 678.911 421.011C673.503 412.797 667.709 404.165 658.842 399.037C655.288 396.924 651.338 395.988 647.357 395.996ZM99.4699 794.001C99.2459 794.004 99.0159 794.014 98.7879 794.031C89.7019 795.536 84.7059 804.752 83.9819 812.88C82.9239 820.255 86.3119 829.734 94.7529 831.386C95.9779 831.61 97.2499 831.507 98.4469 831.196C108.612 827.926 113.161 816.378 111.692 806.812C111.264 800.634 106.41 793.916 99.4699 794.001ZM60.9479 794.396C55.2979 794.529 50.8979 800.026 50.0019 805.193C48.1149 815.43 52.9689 828.149 64.0869 831.386C65.1304 831.6 66.2036 831.629 67.2569 831.47C74.7719 830.268 77.9549 822.187 77.6409 815.663C77.4149 807.056 72.7539 797.105 63.4369 794.685C62.6244 794.475 61.7869 794.378 60.9479 794.396ZM124.088 823.471C114.314 824.032 107.614 833.387 106.658 842.122C105.365 848.422 108.866 856.848 116.36 857.351C126.809 857.228 133.937 846.517 134.233 837.301C134.894 831.206 131.152 823.808 124.088 823.471ZM38.5409 825.547C34.3829 825.512 30.2929 827.902 28.9349 831.956C25.3089 842.803 32.5889 856.539 44.5649 858.819C49.5629 859.639 53.9549 855.957 55.1939 851.527C57.8199 842.052 52.4259 831.049 43.2969 826.748C41.833 825.967 40.2004 825.554 38.5409 825.547ZM82.3569 844.996C74.2049 845.013 65.9259 848.981 60.6469 854.888C54.9459 861.773 50.2759 869.784 48.4489 878.473C46.2289 884.728 51.2589 891.925 58.2289 891.969C66.6149 892.192 73.8209 886.669 82.1589 886.259C89.2329 885.224 95.5669 888.754 101.926 891.064C107.341 893.286 114.824 892.434 117.589 886.844C119.763 881.146 116.562 875.071 113.911 870.011C108.503 861.797 102.709 853.165 93.841 848.037C90.288 845.924 86.3379 844.988 82.3569 844.996ZM213.519 167.511C213.629 167.315 213.735 167.111 213.834 166.905C217.074 158.284 211.59 149.349 204.914 144.658C199.056 140.055 189.153 138.249 183.501 144.734C182.695 145.682 182.147 146.835 181.819 148.027C179.568 158.465 187.294 168.179 196.313 171.689C201.877 174.409 210.123 173.563 213.519 167.511ZM232.437 133.953C235.147 128.993 232.587 122.434 228.56 119.075C220.639 112.322 207.196 110.166 198.834 118.176C198.126 118.973 197.565 119.888 197.176 120.88C194.459 127.988 199.867 134.786 205.674 137.776C213.24 141.883 224.189 142.823 230.943 135.964C231.53 135.365 232.033 134.688 232.437 133.953ZM175.688 174.096C180.089 165.351 175.338 154.871 168.251 149.676C163.441 145.406 154.393 144.225 150.211 150.463C145.093 159.574 150.805 171.102 158.638 175.967C163.586 179.587 171.865 180.045 175.688 174.096ZM216.664 98.972C218.773 95.388 218.748 90.652 215.916 87.448C208.336 78.885 192.799 78.321 184.838 87.553C181.628 91.471 182.621 97.116 185.838 100.404C192.731 107.416 204.956 108.245 213.246 102.49C214.654 101.613 215.828 100.405 216.664 98.972ZM177.913 127.193C181.974 120.125 182.677 110.971 180.201 103.446C177.089 95.066 172.486 87.016 165.874 81.089C161.568 76.039 152.819 76.798 149.296 82.812C144.91 89.962 146.091 98.964 142.277 106.39C139.636 113.033 133.412 116.754 128.231 121.107C123.6 124.685 120.596 131.591 124.055 136.78C127.902 141.513 134.764 141.779 140.472 142.012C150.289 141.435 160.662 140.734 169.536 135.619C173.143 133.597 175.929 130.645 177.913 127.193Z" fill="#92400E" fill-opacity="0.04"/>
<path fill-rule="evenodd" clip-rule="evenodd" d="M92.814 391.535C93.012 391.759 93.204 391.989 93.384 392.219C98.949 399.359 95.804 409.703 89.725 415.023C80.951 424.098 65.369 428.489 53.951 420.513C52.682 419.516 51.572 418.276 50.838 416.828C45.892 406.757 53.061 395.758 61.555 391.036C70.566 385.373 84.08 383.287 92.814 391.535ZM42.72 349.682C48.792 346.534 57.973 346.766 62.57 352.528C63.2507 353.385 63.8109 354.332 64.235 355.341C69.075 366.926 62.419 379.62 53.66 386.647C47.134 392.123 36.229 395.195 29.05 388.34C28.0535 387.372 27.236 386.235 26.635 384.982C21.222 370.882 30.599 355.802 42.72 349.682ZM49.085 437.664C58.91 431.762 73.913 431.337 82.21 441.044C87.435 448.645 82.706 458.371 75.854 462.495C66.05 469.461 49.302 470.512 40.927 459.758C35.535 451.579 41.522 441.293 49.085 437.664ZM4 348.501C7.351 349.081 10.452 351.054 12.537 353.845C13.8384 355.574 14.6986 357.594 15.043 359.731C17.346 370.56 12.641 382.387 4 388.699V348.501ZM4 483.37V400.602C12.814 402.424 21.405 407.468 26.92 414.696C30.071 418.823 32.216 423.664 32.827 429.023C34.5 442.278 30.108 455.108 25.847 467.206L25.817 467.273C22.66 474.007 18.877 482.08 11.269 484.311C8.679 484.811 6.215 484.402 4 483.37Z" fill="#92400E" fill-opacity="0.04"/>
<path d="M1204.52 406.587C1197.33 394.119 1181.36 389.842 1168.9 397.041C1158.05 403.3 1153.4 416.106 1157.08 427.477L1074.86 474.946C1066.85 466.079 1053.25 463.81 1042.59 469.965C1030.12 477.164 1025.84 493.125 1033.04 505.594C1036.28 511.195 1041.47 515.184 1047.48 517.253C1046.27 523.496 1047.13 529.988 1050.36 535.59C1057.56 548.058 1073.52 552.335 1085.99 545.136C1096.65 538.981 1101.48 526.071 1097.7 514.519L1179.92 467.051C1188.04 476.098 1201.45 478.471 1212.3 472.212C1224.76 465.013 1229.04 449.052 1221.84 436.584C1218.61 430.982 1213.6 426.889 1207.4 424.924C1208.8 418.577 1207.76 412.189 1204.52 406.587ZM1207.29 463.538C1199.7 467.92 1190.11 465.504 1185.55 458.019C1184.19 455.67 1181.06 454.83 1178.71 456.186L1088.72 508.141C1086.37 509.497 1085.53 512.632 1086.89 514.982C1091.09 522.675 1088.39 532.185 1080.8 536.567C1073.21 540.949 1063.34 538.457 1058.85 530.686C1056.66 526.892 1056.23 522.805 1057.19 518.633C1059.99 518.466 1062.75 517.832 1065.31 516.837L1065.85 516.524C1068.02 515.273 1069.07 512.499 1068 510.226C1067.01 507.668 1063.95 506.543 1061.39 507.538C1058.83 508.533 1055.96 508.986 1053.14 508.688C1048.24 508.14 1043.86 505.131 1041.35 500.795C1036.97 493.205 1039.46 483.334 1047.23 478.848C1054.64 474.57 1064.51 477.063 1068.97 484.367C1070.33 486.716 1073.46 487.556 1075.81 486.2L1165.62 434.349C1167.97 432.993 1168.81 429.858 1167.45 427.509C1163.25 419.815 1165.95 410.305 1173.54 405.923C1181.13 401.541 1191 404.034 1195.49 411.804C1197.68 415.598 1198.11 419.686 1197.15 423.857C1194.35 424.024 1191.59 424.658 1189.03 425.653C1186.47 426.648 1185.35 429.707 1186.34 432.264C1187.34 434.822 1190.4 435.947 1192.95 434.952C1195.51 433.957 1198.38 433.505 1201.31 433.983C1206.31 434.712 1210.59 437.539 1213.09 441.876C1217.55 449.181 1214.88 459.157 1207.29 463.538ZM435.459 482.701C446.082 472.983 446.816 456.475 437.098 445.853C428.647 436.616 415.139 434.834 404.828 440.874L340.744 370.828C347.675 361.093 346.958 347.326 338.648 338.243C328.93 327.621 312.422 326.887 301.8 336.605C297.027 340.971 294.253 346.903 293.529 353.222C287.171 353.382 281.017 355.619 276.244 359.985C265.622 369.703 264.888 386.212 274.606 396.834C282.916 405.917 296.565 407.853 307.03 401.672L371.113 471.718C364.029 481.594 364.605 495.206 373.055 504.443C382.774 515.065 399.282 515.799 409.904 506.081C414.677 501.715 417.592 495.937 418.175 489.465C424.673 489.458 430.687 487.067 435.459 482.701ZM380.445 497.683C374.53 491.217 374.821 481.335 381.146 475.266C383.147 473.435 383.292 470.192 381.461 468.191L311.321 391.525C309.49 389.524 306.247 389.379 304.246 391.21C297.639 396.972 287.77 396.385 281.855 389.92C275.94 383.454 276.244 373.277 282.864 367.221C286.097 364.263 289.995 362.959 294.276 363.002C295.047 365.681 296.229 368.225 297.78 370.542L298.203 371.004C299.893 372.851 302.828 373.277 304.816 371.741C307.099 370.218 307.538 366.988 306.015 364.705C304.492 362.422 303.431 359.717 303.113 356.897C302.592 352 304.584 347.067 308.278 343.687C314.744 337.772 324.921 338.076 330.977 344.696C336.752 351.008 336.447 361.185 330.276 367.113C328.275 368.944 328.131 372.187 329.962 374.188L399.96 450.7C401.791 452.701 405.034 452.845 407.035 451.014C413.642 445.253 423.511 445.839 429.426 452.305C435.342 458.771 435.037 468.948 428.417 475.004C425.184 477.962 421.287 479.265 417.006 479.223C416.234 476.543 415.051 474 413.501 471.682C411.978 469.399 408.748 468.961 406.465 470.484C404.182 472.007 403.743 475.236 405.266 477.519C406.79 479.802 407.851 482.508 408.014 485.469C408.381 490.506 406.544 495.298 402.849 498.679C396.678 504.607 386.36 504.148 380.445 497.683ZM1868.64 473.411C1874.94 462.499 1871.2 448.531 1860.29 442.231C1850.8 436.753 1839.06 438.83 1832.05 446.59L1760.09 405.048C1763.31 395.097 1759.08 383.799 1749.75 378.412C1738.84 372.113 1724.87 375.856 1718.57 386.767C1715.74 391.669 1714.99 397.351 1716.05 402.814C1710.79 404.625 1706.24 408.115 1703.41 413.018C1697.11 423.929 1700.86 437.897 1711.77 444.197C1721.1 449.584 1733 447.598 1740.1 439.68L1812.05 481.222C1808.74 491.331 1812.82 502.538 1822.3 508.016C1833.22 514.316 1847.18 510.573 1853.48 499.661C1856.31 494.759 1857.22 489.169 1856 483.614C1861.42 481.895 1865.81 478.313 1868.64 473.411ZM1826.69 500.425C1820.04 496.591 1817.68 488.268 1821.36 481.535C1822.54 479.479 1821.81 476.735 1819.75 475.548L1741 430.081C1738.95 428.894 1736.2 429.629 1735.02 431.685C1731.02 438.236 1722.63 440.35 1715.99 436.515C1709.35 432.681 1706.92 424.109 1710.84 417.309C1712.76 413.988 1715.67 411.872 1719.25 410.778C1720.6 412.812 1722.26 414.622 1724.17 416.145C1724.33 416.236 1724.48 416.328 1724.64 416.419C1726.54 417.514 1729.1 417.096 1730.35 415.289C1731.86 413.416 1731.37 410.605 1729.5 409.102C1727.63 407.599 1726.03 405.622 1725.02 403.352C1723.29 399.404 1723.65 394.762 1725.84 390.967C1729.68 384.325 1738.25 381.895 1745.05 385.82C1751.53 389.564 1753.96 398.136 1750.38 404.711C1749.19 406.767 1749.93 409.51 1751.98 410.697L1830.58 456.073C1832.63 457.26 1835.38 456.525 1836.56 454.469C1840.56 447.919 1848.94 445.805 1855.59 449.639C1862.23 453.474 1864.66 462.046 1860.73 468.846C1858.82 472.167 1855.91 474.283 1852.32 475.376C1850.97 473.345 1849.31 471.535 1847.41 470.009C1845.54 468.506 1842.73 468.992 1841.22 470.865C1839.72 472.738 1840.21 475.549 1842.08 477.052C1843.95 478.555 1845.55 480.533 1846.47 482.96C1848.1 487.067 1847.83 491.55 1845.64 495.346C1842.06 501.921 1833.33 504.26 1826.69 500.425Z" fill="#92400E" fill-opacity="0.04"/>
</g>
<defs>
<clipPath id="clip0_27_1317">
<rect width="1406" height="765.72" fill="white" transform="translate(1)"/>
</clipPath>
</defs>
</svg>
