<svg width="1408" height="800" viewBox="0 0 1408 800" fill="none" xmlns="http://www.w3.org/2000/svg">
<g clip-path="url(#clip0_27_1482)">
<g opacity="0.1" clip-path="url(#clip1_27_1482)">
<rect width="1406" height="800" transform="translate(0.673828 -0.249023)" fill="#3490DC" fill-opacity="0.05"/>
<path fill-rule="evenodd" clip-rule="evenodd" d="M1.02539 224.751C7.40539 226.948 14.6284 226.686 21.1414 223.444C26.9314 220.561 31.3264 215.81 33.6694 209.749C39.9194 211.533 46.3584 210.891 52.1494 208.008C65.0374 201.592 70.2904 185.925 63.8744 173.037C58.2954 161.829 45.8014 156.395 34.2244 159.361L3.67339 97.9868V120.93L26.8394 167.466C28.0484 169.894 31.1254 170.926 33.5534 169.717C41.4914 165.999 50.8174 169.281 54.7234 177.126C58.6284 184.971 55.5314 194.671 47.4994 198.669C43.5774 200.622 39.4704 200.801 35.3674 199.581C35.3724 196.781 34.9104 193.981 34.0754 191.367C33.2404 188.753 30.2564 187.441 27.6424 188.276C25.0284 189.111 23.7164 192.095 24.5524 194.709C25.3864 197.324 25.6624 200.217 25.0024 203.108C23.9684 208.052 20.8824 212.152 16.3984 214.384C12.3804 216.508 7.73239 216.578 3.67339 215V224.751H1.02539ZM3.67339 184.505C4.81539 183.023 5.10839 180.934 4.23639 179.184L3.67339 178.052V184.505Z" fill="#3490DC"/>
<path d="M1458.61 629.91C1467.4 631.87 1475.44 636.293 1481.8 642.66C1488.18 649.015 1492.6 657.058 1494.56 665.842C1484.58 674.651 1469.16 674.304 1459.65 664.799C1450.14 655.294 1449.79 639.878 1458.61 629.91ZM1436.69 687.749C1427.18 678.245 1411.76 677.897 1401.78 686.706C1403.74 695.49 1408.17 703.533 1414.54 709.888C1420.9 716.256 1428.95 720.679 1437.73 722.638C1446.55 712.67 1446.2 697.254 1436.69 687.749ZM1495.37 671.174C1490.15 674.999 1483.89 676.854 1477.63 676.854C1469.86 676.854 1462.2 673.956 1456.29 668.044C1445.73 657.497 1444.69 640.806 1453.27 628.983C1451.65 628.867 1449.91 628.751 1448.17 628.751C1435.65 628.751 1423.59 633.619 1414.54 642.66C1404.33 652.86 1399.35 667.117 1400.97 681.374C1412.68 672.797 1429.5 673.84 1440.05 684.388C1450.61 694.936 1451.65 711.627 1443.07 723.449C1457.33 725.072 1471.6 720.088 1481.8 709.888C1492.01 699.688 1496.99 685.431 1495.37 671.174ZM1859.17 153.362C1871.38 156.081 1882.56 162.227 1891.4 171.077C1900.25 179.91 1906.4 191.084 1909.12 203.288C1895.27 215.528 1873.83 215.045 1860.62 201.839C1847.41 188.632 1846.93 167.212 1859.17 153.362ZM1828.72 233.727C1815.51 220.521 1794.07 220.038 1780.22 232.278C1782.95 244.482 1789.09 255.656 1797.94 264.489C1806.78 273.34 1817.96 279.485 1830.17 282.205C1842.41 268.354 1841.93 246.934 1828.72 233.727ZM1910.25 210.697C1903 216.011 1894.3 218.588 1885.6 218.588C1874.8 218.588 1864.17 214.562 1855.95 206.348C1841.29 191.692 1839.84 168.501 1851.76 152.073C1849.5 151.912 1847.09 151.751 1844.67 151.751C1827.27 151.751 1810.51 158.515 1797.94 171.077C1783.76 185.25 1776.83 205.06 1779.09 224.869C1795.36 212.951 1818.73 214.401 1833.39 229.057C1848.05 243.713 1849.5 266.905 1837.58 283.332C1857.4 285.587 1877.22 278.661 1891.4 264.489C1905.58 250.316 1912.51 230.506 1910.25 210.697ZM607.05 38.959C616.206 40.9995 624.59 45.6088 631.22 52.246C637.859 58.8701 642.471 67.2507 644.514 76.404C634.121 85.584 618.048 85.222 608.138 75.317C598.228 65.412 597.866 49.347 607.05 38.959ZM584.21 99.233C574.3 89.329 558.227 88.966 547.834 98.146C549.877 107.299 554.489 115.68 561.128 122.304C567.757 128.942 576.141 133.551 585.298 135.591C594.482 125.203 594.12 109.138 584.21 99.233ZM645.36 81.96C639.921 85.946 633.396 87.879 626.87 87.879C618.773 87.879 610.797 84.859 604.633 78.699C593.636 67.707 592.549 50.313 601.491 37.993C599.799 37.872 597.987 37.751 596.174 37.751C583.122 37.751 570.554 42.824 561.128 52.246C550.493 62.876 545.297 77.733 546.988 92.59C559.194 83.651 576.717 84.738 587.715 95.73C598.712 106.722 599.799 124.116 590.857 136.437C605.721 138.128 620.586 132.934 631.22 122.304C641.855 111.675 647.051 96.818 645.36 81.96ZM352.05 674.959C361.206 676.999 369.591 681.608 376.22 688.246C382.859 694.87 387.471 703.251 389.514 712.404C379.121 721.584 363.048 721.222 353.138 711.317C343.228 701.412 342.866 685.347 352.05 674.959ZM329.21 735.233C319.3 725.329 303.227 724.966 292.834 734.146C294.877 743.299 299.489 751.68 306.128 758.304C312.757 764.942 321.141 769.551 330.298 771.591C339.482 761.203 339.12 745.138 329.21 735.233ZM390.36 717.96C384.921 721.946 378.396 723.879 371.87 723.879C363.773 723.879 355.797 720.859 349.633 714.699C338.636 703.707 337.549 686.313 346.491 673.993C344.799 673.872 342.987 673.751 341.174 673.751C328.122 673.751 315.554 678.824 306.128 688.246C295.493 698.875 290.297 713.733 291.988 728.59C304.194 719.651 321.717 720.738 332.715 731.73C343.712 742.722 344.799 760.116 335.857 772.437C350.721 774.128 365.586 768.934 376.22 758.304C386.855 747.675 392.051 732.818 390.36 717.96ZM787.856 738.412C788.097 738.181 788.337 737.935 788.567 737.682C796.88 726.697 792.515 711.102 784.648 701.106C777.948 691.627 764.155 684.288 753.184 691.02C751.609 692.014 750.33 693.429 749.356 695.005C741.746 709.102 749.082 726.896 760.874 736.292C767.92 742.893 780.373 745.591 787.856 738.412ZM829.468 698.655C835.492 692.739 834.439 681.987 829.913 675.189C821.069 661.604 802.225 652.07 786.646 659.728C785.28 660.548 784.077 661.612 783.097 662.868C776.177 671.904 781.312 684.357 788.603 691.467C798.017 701.038 813.701 707.617 826.445 700.866C827.553 700.277 828.57 699.532 829.468 698.655ZM729.604 729.968C739.672 719.356 737.02 701.864 728.758 690.94C723.46 682.445 710.664 676.42 701.952 683.494C690.681 694.297 694.311 713.769 703.803 724.568C709.574 732.185 721.538 736.792 729.604 729.968ZM820.741 640.311C825.315 636.107 827.232 629.213 824.397 623.209C816.8 607.156 794.226 598.939 778.73 608.563C772.403 612.728 771.532 621.403 774.898 627.713C782.125 641.185 799.729 648.212 814.272 643.796C816.688 643.199 818.913 642 820.741 640.311ZM752.215 662.869C761.092 654.532 765.9 641.564 765.368 629.45C764.257 615.791 760.819 601.9 753.559 590.14C749.319 580.751 736.163 577.687 728.512 584.749C719.124 593.051 717.144 606.695 708.483 615.67C701.865 624.067 691.194 626.51 681.794 630.368C673.519 633.363 666.261 641.968 669.199 651.156C672.894 659.865 682.858 663.518 691.141 666.576C705.79 670.412 721.306 674.332 736.443 671.125C742.572 669.905 747.879 666.941 752.215 662.869ZM1190.94 809.96C1190.8 809.729 1190.66 809.498 1190.5 809.271C1183.42 800.778 1170.44 801.358 1161.2 805.692C1152.57 809.208 1144.33 818.657 1147.6 828.456C1148.09 829.868 1148.96 831.125 1150.02 832.172C1159.65 840.681 1174.9 838.178 1184.38 830.667C1190.82 826.358 1195.19 817.113 1190.94 809.96ZM1167.42 770.21C1163.89 764.427 1155.29 763.297 1149.16 765.6C1136.93 770.046 1126.06 783.046 1129.21 796.615C1129.61 797.831 1130.22 798.965 1131.02 799.959C1136.83 807.01 1147.5 805.258 1154.38 800.849C1163.57 795.229 1171.56 784.163 1168.6 772.975C1168.32 771.955 1167.92 771.036 1167.42 770.21ZM1173.76 853.963C1167.29 844.165 1153.14 843.061 1143.1 847.535C1135.49 850.134 1128.46 859.042 1132.41 867.138C1138.81 877.91 1154.69 878.61 1164.85 873.151C1171.85 870.023 1177.63 861.507 1173.76 853.963ZM1120.23 766.436C1117.77 762.097 1112.73 759.346 1107.52 760.472C1093.59 763.495 1083.07 779.649 1087.78 793.51C1089.89 799.213 1096.51 801.469 1102.05 799.984C1113.9 796.781 1122.59 784.296 1121.78 772.126C1121.75 770.129 1121.22 768.173 1120.23 766.436ZM1125.41 824.101C1120.51 815.647 1111.25 809.533 1101.68 807.749C1090.8 806.137 1079.32 806.301 1068.81 809.841C1060.7 811.449 1055.91 821.177 1060.04 828.441C1064.83 837.287 1075.13 841.314 1080.58 849.714C1085.94 856.412 1085.91 865.197 1087.22 873.246C1088.06 880.259 1093.46 887.496 1101.18 886.868C1108.66 885.561 1113.33 878.436 1117.22 872.516C1122.88 861.762 1128.76 850.345 1129 837.929C1129.16 832.916 1127.81 828.229 1125.41 824.101ZM1463.02 534.286C1463.28 534.352 1463.55 534.412 1463.82 534.462C1474.81 535.54 1483.45 526.416 1486.81 517.229C1490.33 509.016 1489.34 496.987 1480.08 492.454C1478.73 491.815 1477.23 491.538 1475.74 491.528C1462.96 492.16 1454.11 504.123 1452.84 515.657C1451.42 522.944 1454.95 532.231 1463.02 534.286ZM1507.75 545.782C1514.34 547.381 1521.14 542.381 1523.78 536.675C1529.14 525.405 1527.47 509.169 1515.59 501.97C1514.45 501.396 1513.22 501.03 1511.95 500.889C1502.87 499.949 1496.68 508.32 1495.02 515.973C1492.61 526.011 1494.92 538.981 1504.96 544.675C1505.88 545.19 1506.81 545.553 1507.75 545.782ZM1443.65 492.517C1455.14 494.901 1465.81 486.146 1469.62 476.326C1473.08 469.432 1471.64 458.587 1463.11 455.679C1450.98 452.579 1439.4 462.771 1436.19 473.352C1433.54 480.206 1435.58 489.936 1443.65 492.517ZM1543.37 516.66C1548.17 517.99 1553.65 516.492 1556.48 512.218C1564.05 500.782 1559.88 482.614 1546.72 476.258C1541.18 473.757 1534.95 476.658 1532.14 481.404C1526.16 491.563 1528.99 505.978 1538.23 513.793C1539.69 515.15 1541.45 516.134 1543.37 516.66ZM1498.66 480.539C1508.11 483.049 1518.93 481.023 1526.87 475.82C1535.61 469.616 1543.5 461.787 1548.32 452.291C1552.83 445.737 1549.24 435.84 1541.18 433.627C1531.54 430.766 1521.48 434.926 1511.69 432.814C1503.18 431.817 1496.94 425.764 1490.29 421.115C1484.71 416.861 1475.78 415.526 1470.84 421.142C1466.56 427.065 1468.38 435.095 1469.88 441.778C1473.59 452.968 1477.62 464.763 1486.3 473.453C1489.76 477.003 1494.05 479.313 1498.66 480.539ZM1317.15 108.634C1316.81 108.548 1316.46 108.471 1316.11 108.404C1301.8 107.001 1290.54 118.883 1286.16 130.849C1281.58 141.544 1282.86 157.21 1294.93 163.113C1296.68 163.946 1298.64 164.306 1300.57 164.319C1317.23 163.496 1328.75 147.917 1330.4 132.896C1332.26 123.405 1327.65 111.311 1317.15 108.634ZM1258.89 93.663C1250.31 91.58 1241.46 98.092 1238.02 105.523C1231.03 120.2 1233.22 141.345 1248.67 150.72C1250.16 151.464 1251.77 151.941 1253.42 152.128C1265.24 153.353 1273.31 142.45 1275.47 132.483C1278.61 119.412 1275.6 102.519 1262.53 95.104C1261.39 94.461 1260.17 93.9762 1258.89 93.663ZM1342.37 163.031C1327.4 159.927 1313.51 171.328 1308.54 184.117C1304.05 193.096 1305.92 207.22 1317.02 211.007C1332.83 215.043 1347.91 201.77 1352.08 187.99C1355.54 179.064 1352.89 166.393 1342.37 163.031ZM1212.51 131.59C1206.25 129.857 1199.11 131.808 1195.43 137.374C1185.58 152.268 1191 175.928 1208.14 184.205C1215.35 187.463 1223.46 183.684 1227.12 177.504C1234.91 164.274 1231.22 145.5 1219.19 135.323C1217.27 133.515 1214.95 132.267 1212.51 131.59ZM1270.73 178.63C1258.43 175.361 1244.34 178 1233.99 184.776C1222.61 192.856 1212.33 203.052 1206.06 215.418C1200.18 223.955 1204.86 236.844 1215.36 239.726C1227.91 243.451 1241.01 238.033 1253.76 240.784C1264.84 242.083 1272.97 249.966 1281.63 256.02C1288.9 261.559 1300.53 263.299 1306.96 255.985C1312.54 248.27 1310.17 237.814 1308.21 229.11C1303.37 214.537 1298.12 199.177 1286.82 187.859C1282.32 183.235 1276.74 180.227 1270.73 178.63ZM1678.74 199.725C1678.9 199.565 1679.05 199.395 1679.2 199.222C1684.56 191.733 1681.58 181.683 1676.35 175.425C1671.88 169.462 1662.78 165.155 1655.64 169.955C1654.62 170.663 1653.79 171.635 1653.17 172.701C1648.29 182.201 1653.24 193.584 1661.04 199.309C1665.71 203.375 1673.9 204.693 1678.74 199.725ZM1705.7 172.207C1709.6 168.118 1708.83 161.12 1705.81 156.833C1699.9 148.26 1687.48 142.698 1677.33 148.271C1676.44 148.857 1675.67 149.596 1675.03 150.454C1670.56 156.617 1674.03 164.582 1678.86 168.973C1685.11 174.899 1695.44 178.64 1703.74 173.763C1704.49 173.314 1705.14 172.791 1705.7 172.207ZM1640.5 196.295C1647.01 188.987 1645.13 177.634 1639.63 170.782C1636.09 165.413 1627.66 161.93 1622 166.873C1614.7 174.349 1617.24 186.963 1623.54 193.689C1627.39 198.466 1635.26 201.051 1640.5 196.295ZM1699.52 134.336C1702.48 131.42 1703.69 126.839 1701.78 123.011C1696.67 112.778 1681.81 108.213 1671.73 115.069C1667.62 118.023 1667.12 123.732 1669.37 127.741C1674.22 136.298 1685.81 140.263 1695.31 136.85C1696.9 136.367 1698.35 135.504 1699.52 134.336ZM1654.78 151.566C1660.54 145.79 1663.59 137.13 1663.14 129.22C1662.3 120.321 1659.94 111.353 1655.09 103.917C1652.24 97.925 1643.59 96.393 1638.63 101.291C1632.54 107.062 1631.35 116.063 1625.75 122.249C1621.48 127.982 1614.5 129.965 1608.37 132.829C1602.97 135.087 1598.28 140.98 1600.28 146.887C1602.77 152.454 1609.33 154.487 1614.78 156.19C1624.42 158.173 1634.62 160.181 1644.51 157.537C1648.52 156.518 1651.98 154.387 1654.78 151.566ZM1857.37 669.37C1857.16 669.313 1856.94 669.264 1856.71 669.223C1847.54 668.324 1840.33 675.934 1837.53 683.597C1834.6 690.447 1835.42 700.479 1843.14 704.26C1844.27 704.793 1845.52 705.024 1846.76 705.033C1857.42 704.505 1864.81 694.528 1865.86 684.908C1867.05 678.83 1864.1 671.084 1857.37 669.37ZM1820.06 659.781C1814.57 658.448 1808.9 662.618 1806.7 667.377C1802.22 676.777 1803.62 690.319 1813.52 696.323C1814.47 696.803 1815.51 697.103 1816.56 697.225C1824.13 698.009 1829.3 691.027 1830.68 684.644C1832.69 676.272 1830.77 665.454 1822.39 660.705C1821.66 660.29 1820.88 659.979 1820.06 659.781ZM1873.53 704.207C1863.94 702.22 1855.05 709.521 1851.86 717.712C1848.98 723.462 1850.18 732.508 1857.29 734.933C1867.42 737.518 1877.08 729.017 1879.75 720.192C1881.96 714.476 1880.26 706.361 1873.53 704.207ZM1790.36 684.071C1786.35 682.962 1781.78 684.211 1779.42 687.776C1773.11 697.314 1776.59 712.467 1787.56 717.768C1792.18 719.855 1797.37 717.435 1799.72 713.476C1804.71 705.004 1802.34 692.98 1794.64 686.462C1793.43 685.329 1791.96 684.508 1790.36 684.071ZM1827.65 714.198C1819.77 712.104 1810.74 713.794 1804.12 718.134C1796.83 723.309 1790.24 729.839 1786.23 737.758C1782.47 743.225 1785.46 751.48 1792.18 753.326C1800.22 755.712 1808.61 752.242 1816.77 754.004C1823.88 754.835 1829.08 759.884 1834.63 763.761C1839.28 767.309 1846.73 768.423 1850.85 763.739C1854.42 758.798 1852.9 752.101 1851.65 746.527C1848.55 737.194 1845.19 727.357 1837.95 720.108C1835.07 717.147 1831.49 715.221 1827.65 714.198ZM831.958 137.266C831.801 137.426 831.647 137.596 831.497 137.769C826.136 145.258 829.121 155.308 834.356 161.566C838.823 167.529 847.921 171.836 855.058 167.036C856.082 166.328 856.91 165.356 857.536 164.29C862.412 154.79 857.462 143.407 849.659 137.682C844.989 133.616 836.805 132.298 831.958 137.266ZM804.999 164.784C801.098 168.873 801.873 175.871 804.893 180.158C810.797 188.731 823.224 194.292 833.374 188.72C834.263 188.133 835.042 187.394 835.675 186.537C840.139 180.374 836.675 172.409 831.84 168.018C825.594 162.092 815.262 158.351 806.963 163.228C806.24 163.655 805.579 164.178 804.999 164.784ZM870.204 140.696C863.69 148.004 865.567 159.357 871.068 166.209C874.608 171.578 883.042 175.061 888.697 170.118C895.998 162.642 893.465 150.028 887.158 143.302C883.315 138.525 875.437 135.94 870.204 140.696ZM811.181 202.655C808.217 205.571 807.015 210.152 808.921 213.98C814.027 224.213 828.888 228.778 838.968 221.922C843.082 218.968 843.584 213.259 841.328 209.25C836.485 200.693 824.89 196.728 815.394 200.141C813.806 200.624 812.36 201.487 811.181 202.655ZM855.916 185.425C850.164 191.201 847.115 199.861 847.56 207.771C848.397 216.67 850.76 225.638 855.612 233.074C858.465 239.066 867.112 240.598 872.071 235.7C878.158 229.929 879.348 220.928 884.954 214.742C889.224 209.009 896.199 207.026 902.329 204.162C907.729 201.904 912.418 196.011 910.42 190.104C907.929 184.537 901.37 182.504 895.917 180.801C886.285 178.817 876.084 176.81 866.188 179.454C862.181 180.473 858.726 182.604 855.916 185.425ZM664.143 344.752C663.92 344.755 663.69 344.765 663.462 344.782C654.376 346.287 649.38 355.503 648.656 363.631C647.598 371.006 650.986 380.485 659.427 382.137C660.652 382.361 661.924 382.258 663.121 381.947C673.286 378.677 677.835 367.129 676.366 357.563C675.938 351.385 671.083 344.667 664.143 344.752ZM625.622 345.147C619.973 345.28 615.572 350.777 614.676 355.944C612.789 366.181 617.643 378.9 628.761 382.137C629.805 382.351 630.878 382.38 631.932 382.221C639.446 381.019 642.629 372.938 642.315 366.414C642.089 357.807 637.428 347.856 628.111 345.436C627.298 345.226 626.461 345.129 625.622 345.147ZM688.762 374.222C678.988 374.783 672.288 384.138 671.332 392.873C670.039 399.173 673.54 407.599 681.034 408.102C691.483 407.979 698.611 397.268 698.907 388.052C699.568 381.957 695.826 374.559 688.762 374.222ZM603.215 376.298C599.057 376.263 594.967 378.653 593.609 382.707C589.983 393.554 597.263 407.29 609.239 409.57C614.237 410.39 618.629 406.708 619.868 402.278C622.494 392.803 617.1 381.8 607.971 377.499C606.507 376.718 604.874 376.305 603.215 376.298ZM647.031 395.747C638.879 395.764 630.6 399.732 625.321 405.639C619.62 412.524 614.95 420.535 613.123 429.224C610.903 435.479 615.934 442.676 622.904 442.72C631.289 442.943 638.495 437.42 646.833 437.01C653.907 435.975 660.241 439.505 666.6 441.815C672.015 444.037 679.498 443.185 682.263 437.595C684.437 431.897 681.236 425.822 678.585 420.762C673.177 412.548 667.383 403.916 658.516 398.788C654.962 396.675 651.012 395.739 647.031 395.747ZM99.1438 793.752C98.9198 793.755 98.6898 793.765 98.4618 793.782C89.3758 795.287 84.3798 804.503 83.6558 812.631C82.5978 820.006 85.9858 829.485 94.4268 831.137C95.6518 831.361 96.9238 831.258 98.1208 830.947C108.286 827.677 112.835 816.129 111.366 806.563C110.938 800.385 106.084 793.667 99.1438 793.752ZM60.6218 794.147C54.9718 794.28 50.5718 799.777 49.6758 804.944C47.7888 815.181 52.6428 827.9 63.7608 831.137C64.8043 831.351 65.8774 831.38 66.9308 831.221C74.4458 830.019 77.6288 821.938 77.3148 815.414C77.0888 806.807 72.4278 796.856 63.1108 794.436C62.2982 794.226 61.4608 794.129 60.6218 794.147ZM123.762 823.222C113.988 823.783 107.288 833.138 106.332 841.873C105.039 848.173 108.54 856.599 116.034 857.102C126.483 856.979 133.611 846.268 133.907 837.052C134.568 830.957 130.826 823.559 123.762 823.222ZM38.2148 825.298C34.0568 825.263 29.9668 827.653 28.6088 831.707C24.9828 842.554 32.2628 856.29 44.2388 858.57C49.2368 859.39 53.6288 855.708 54.8678 851.278C57.4938 841.803 52.0998 830.8 42.9708 826.499C41.5068 825.718 39.8742 825.305 38.2148 825.298ZM82.0308 844.747C73.8788 844.764 65.5998 848.732 60.3208 854.639C54.6198 861.524 49.9498 869.535 48.1228 878.224C45.9028 884.479 50.9328 891.676 57.9028 891.72C66.2888 891.943 73.4948 886.42 81.8328 886.01C88.9068 884.975 95.2408 888.505 101.6 890.815C107.015 893.037 114.498 892.185 117.263 886.595C119.437 880.897 116.236 874.822 113.585 869.762C108.177 861.548 102.383 852.916 93.5148 847.788C89.9618 845.675 86.0118 844.739 82.0308 844.747ZM213.193 167.262C213.303 167.066 213.409 166.862 213.508 166.656C216.748 158.035 211.264 149.1 204.588 144.409C198.73 139.806 188.827 138 183.175 144.485C182.369 145.433 181.821 146.586 181.493 147.778C179.242 158.216 186.968 167.93 195.987 171.44C201.551 174.16 209.797 173.314 213.193 167.262ZM232.111 133.704C234.821 128.744 232.261 122.185 228.234 118.826C220.313 112.073 206.87 109.917 198.508 117.927C197.8 118.724 197.239 119.639 196.85 120.631C194.133 127.739 199.541 134.537 205.348 137.527C212.914 141.634 223.863 142.574 230.617 135.715C231.204 135.116 231.707 134.439 232.111 133.704ZM175.362 173.847C179.763 165.102 175.012 154.622 167.925 149.427C163.115 145.157 154.067 143.976 149.885 150.214C144.767 159.325 150.479 170.853 158.312 175.718C163.26 179.338 171.539 179.796 175.362 173.847ZM216.338 98.723C218.447 95.139 218.422 90.403 215.59 87.199C208.01 78.636 192.473 78.072 184.512 87.304C181.302 91.222 182.295 96.867 185.512 100.155C192.405 107.167 204.63 107.996 212.92 102.241C214.328 101.364 215.502 100.156 216.338 98.723ZM177.587 126.944C181.648 119.876 182.351 110.722 179.875 103.197C176.763 94.817 172.16 86.767 165.548 80.84C161.242 75.79 152.493 76.549 148.97 82.563C144.584 89.713 145.765 98.715 141.951 106.141C139.31 112.784 133.086 116.505 127.905 120.858C123.274 124.436 120.27 131.342 123.729 136.531C127.576 141.264 134.438 141.53 140.146 141.763C149.963 141.186 160.336 140.485 169.21 135.37C172.817 133.348 175.603 130.396 177.587 126.944Z" fill="#3490DC"/>
<path fill-rule="evenodd" clip-rule="evenodd" d="M92.4878 391.286C92.6858 391.51 92.8778 391.74 93.0578 391.97C98.6228 399.11 95.4778 409.454 89.3988 414.774C80.6248 423.849 65.0428 428.24 53.6248 420.264C52.3558 419.267 51.2458 418.027 50.5118 416.579C45.5658 406.508 52.7348 395.509 61.2288 390.787C70.2398 385.124 83.7538 383.038 92.4878 391.286ZM42.3938 349.433C48.4658 346.285 57.6468 346.517 62.2438 352.279C62.9245 353.136 63.4847 354.083 63.9088 355.092C68.7488 366.677 62.0928 379.371 53.3338 386.398C46.8078 391.874 35.9028 394.946 28.7238 388.091C27.7273 387.123 26.9098 385.986 26.3088 384.733C20.8958 370.633 30.2728 355.553 42.3938 349.433ZM48.7588 437.415C58.5838 431.513 73.5868 431.088 81.8838 440.795C87.1088 448.396 82.3798 458.122 75.5278 462.246C65.7238 469.212 48.9758 470.263 40.6008 459.509C35.2088 451.33 41.1958 441.044 48.7588 437.415ZM3.67383 348.252C7.02483 348.832 10.1258 350.805 12.2108 353.596C13.5123 355.325 14.3724 357.345 14.7168 359.482C17.0198 370.311 12.3148 382.138 3.67383 388.45V348.252ZM3.67383 483.121V400.353C12.4878 402.175 21.0788 407.219 26.5938 414.447C29.7448 418.574 31.8898 423.415 32.5008 428.774C34.1738 442.029 29.7818 454.859 25.5208 466.957L25.4908 467.024C22.3338 473.758 18.5508 481.831 10.9428 484.062C8.35283 484.562 5.88883 484.153 3.67383 483.121Z" fill="#3490DC"/>
<path d="M1204.19 406.338C1197 393.87 1181.03 389.593 1168.57 396.792C1157.72 403.051 1153.07 415.857 1156.75 427.228L1074.53 474.697C1066.52 465.83 1052.92 463.561 1042.26 469.716C1029.79 476.915 1025.51 492.876 1032.71 505.345C1035.95 510.946 1041.14 514.935 1047.15 517.004C1045.94 523.247 1046.8 529.739 1050.03 535.341C1057.23 547.809 1073.19 552.086 1085.66 544.887C1096.32 538.732 1101.15 525.822 1097.37 514.27L1179.59 466.802C1187.71 475.849 1201.12 478.222 1211.97 471.963C1224.43 464.764 1228.71 448.803 1221.51 436.335C1218.28 430.733 1213.27 426.64 1207.07 424.675C1208.47 418.328 1207.43 411.94 1204.19 406.338ZM1206.96 463.289C1199.37 467.671 1189.78 465.255 1185.22 457.77C1183.86 455.421 1180.73 454.581 1178.38 455.937L1088.39 507.892C1086.04 509.248 1085.2 512.383 1086.56 514.733C1090.76 522.426 1088.06 531.936 1080.47 536.318C1072.88 540.7 1063.01 538.208 1058.52 530.437C1056.33 526.643 1055.9 522.556 1056.86 518.384C1059.66 518.217 1062.42 517.583 1064.98 516.588L1065.52 516.275C1067.69 515.024 1068.74 512.25 1067.67 509.977C1066.68 507.419 1063.62 506.294 1061.06 507.289C1058.5 508.284 1055.63 508.737 1052.81 508.439C1047.91 507.891 1043.53 504.882 1041.02 500.546C1036.64 492.956 1039.13 483.085 1046.9 478.599C1054.31 474.321 1064.18 476.814 1068.64 484.118C1070 486.467 1073.13 487.307 1075.48 485.951L1165.29 434.1C1167.64 432.744 1168.48 429.609 1167.12 427.26C1162.92 419.566 1165.62 410.056 1173.21 405.674C1180.8 401.292 1190.67 403.785 1195.16 411.555C1197.35 415.349 1197.78 419.437 1196.82 423.608C1194.02 423.775 1191.26 424.409 1188.7 425.404C1186.14 426.399 1185.02 429.458 1186.01 432.015C1187.01 434.573 1190.07 435.698 1192.62 434.703C1195.18 433.708 1198.05 433.256 1200.98 433.734C1205.98 434.463 1210.26 437.29 1212.76 441.627C1217.22 448.932 1214.55 458.908 1206.96 463.289ZM435.133 482.452C445.756 472.734 446.49 456.226 436.772 445.604C428.321 436.367 414.813 434.585 404.502 440.625L340.418 370.579C347.349 360.844 346.632 347.077 338.322 337.994C328.604 327.372 312.096 326.638 301.474 336.356C296.701 340.722 293.927 346.654 293.203 352.973C286.845 353.133 280.691 355.37 275.918 359.736C265.296 369.454 264.562 385.963 274.28 396.585C282.59 405.668 296.239 407.604 306.704 401.423L370.787 471.469C363.703 481.345 364.279 494.957 372.729 504.194C382.448 514.816 398.956 515.55 409.578 505.832C414.351 501.466 417.266 495.688 417.849 489.216C424.347 489.209 430.361 486.818 435.133 482.452ZM380.119 497.434C374.204 490.968 374.495 481.086 380.82 475.017C382.821 473.186 382.966 469.943 381.135 467.942L310.995 391.276C309.164 389.275 305.921 389.13 303.92 390.961C297.313 396.723 287.444 396.136 281.529 389.671C275.614 383.205 275.918 373.028 282.538 366.972C285.771 364.014 289.669 362.71 293.95 362.753C294.721 365.432 295.903 367.976 297.454 370.293L297.877 370.755C299.567 372.602 302.502 373.028 304.49 371.492C306.773 369.969 307.212 366.739 305.689 364.456C304.166 362.173 303.105 359.468 302.787 356.648C302.266 351.751 304.258 346.818 307.952 343.438C314.418 337.523 324.595 337.827 330.651 344.447C336.426 350.759 336.121 360.936 329.95 366.864C327.949 368.695 327.805 371.938 329.636 373.939L399.634 450.451C401.465 452.452 404.708 452.596 406.709 450.765C413.316 445.004 423.185 445.59 429.1 452.056C435.016 458.522 434.711 468.699 428.091 474.755C424.858 477.713 420.961 479.016 416.68 478.974C415.908 476.294 414.725 473.751 413.175 471.433C411.652 469.15 408.422 468.712 406.139 470.235C403.856 471.758 403.417 474.987 404.94 477.27C406.464 479.553 407.525 482.259 407.688 485.22C408.055 490.257 406.218 495.049 402.523 498.43C396.352 504.358 386.034 503.899 380.119 497.434ZM1868.31 473.162C1874.61 462.25 1870.87 448.282 1859.96 441.982C1850.47 436.504 1838.73 438.581 1831.72 446.341L1759.76 404.799C1762.98 394.848 1758.75 383.55 1749.42 378.163C1738.51 371.864 1724.54 375.607 1718.24 386.518C1715.41 391.42 1714.66 397.102 1715.72 402.565C1710.46 404.376 1705.91 407.866 1703.08 412.769C1696.78 423.68 1700.53 437.648 1711.44 443.948C1720.77 449.335 1732.67 447.349 1739.77 439.431L1811.72 480.973C1808.41 491.082 1812.49 502.289 1821.97 507.767C1832.89 514.067 1846.85 510.324 1853.15 499.412C1855.98 494.51 1856.89 488.92 1855.67 483.365C1861.09 481.646 1865.48 478.064 1868.31 473.162ZM1826.36 500.176C1819.71 496.342 1817.35 488.019 1821.03 481.286C1822.21 479.23 1821.48 476.486 1819.42 475.299L1740.67 429.832C1738.62 428.645 1735.87 429.38 1734.69 431.436C1730.69 437.987 1722.3 440.101 1715.66 436.266C1709.02 432.432 1706.59 423.86 1710.51 417.06C1712.43 413.739 1715.34 411.623 1718.92 410.529C1720.28 412.563 1721.94 414.373 1723.84 415.896C1724 415.987 1724.15 416.079 1724.31 416.17C1726.21 417.265 1728.77 416.847 1730.02 415.04C1731.53 413.167 1731.04 410.356 1729.17 408.853C1727.3 407.35 1725.7 405.373 1724.69 403.103C1722.96 399.155 1723.32 394.513 1725.51 390.718C1729.35 384.076 1737.92 381.646 1744.72 385.571C1751.2 389.315 1753.63 397.887 1750.05 404.462C1748.86 406.518 1749.6 409.261 1751.65 410.448L1830.25 455.824C1832.3 457.011 1835.05 456.276 1836.23 454.22C1840.23 447.67 1848.61 445.556 1855.26 449.39C1861.9 453.225 1864.33 461.797 1860.4 468.597C1858.49 471.918 1855.58 474.034 1851.99 475.127C1850.64 473.096 1848.99 471.286 1847.08 469.76C1845.21 468.257 1842.4 468.743 1840.89 470.616C1839.39 472.489 1839.88 475.3 1841.75 476.803C1843.62 478.306 1845.22 480.284 1846.14 482.711C1847.77 486.818 1847.5 491.301 1845.31 495.097C1841.73 501.672 1833 504.011 1826.36 500.176Z" fill="#3490DC"/>
</g>
</g>
<rect x="0.5" y="0.5" width="1407" height="799" stroke="#E2E8F0"/>
<defs>
<clipPath id="clip0_27_1482">
<rect width="1408" height="800" fill="white"/>
</clipPath>
<clipPath id="clip1_27_1482">
<rect width="1406" height="800" fill="white" transform="translate(0.673828 -0.249023)"/>
</clipPath>
</defs>
</svg>
